<svg width="83" height="37" viewBox="0 0 83 37" fill="none" xmlns="http://www.w3.org/2000/svg">
<g id="gojou-logo">
<path id="Gojou" d="M11.68 30.1666C9.78133 30.1666 8.05333 29.7613 6.496 28.9506C4.96 28.1399 3.73333 26.9453 2.816 25.3666C1.92 23.7666 1.472 21.8039 1.472 19.4786C1.472 17.1746 1.93067 15.2119 2.848 13.5906C3.78667 11.9479 5.024 10.6999 6.56 9.84661C8.096 8.97194 9.792 8.53461 11.648 8.53461C13.1627 8.53461 14.464 8.81194 15.552 9.36661C16.64 9.92127 17.5253 10.5506 18.208 11.2546L15.744 14.2626C15.2107 13.7933 14.6453 13.3986 14.048 13.0786C13.4507 12.7586 12.704 12.5986 11.808 12.5986C10.1867 12.5986 8.864 13.1959 7.84 14.3906C6.816 15.5853 6.304 17.2279 6.304 19.3186C6.304 21.4519 6.79467 23.1159 7.776 24.3106C8.75733 25.5053 10.2187 26.1026 12.16 26.1026C12.5867 26.1026 13.0027 26.0493 13.408 25.9426C13.8133 25.8359 14.144 25.6759 14.4 25.4626V21.8786H10.944V18.0386H18.56V27.6386C17.8347 28.3426 16.864 28.9399 15.648 29.4306C14.4533 29.9213 13.1307 30.1666 11.68 30.1666ZM29.3023 30.1666C27.9583 30.1666 26.6889 29.8466 25.4943 29.2066C24.3209 28.5453 23.3716 27.5959 22.6463 26.3586C21.9209 25.0999 21.5583 23.5959 21.5583 21.8466C21.5583 20.0759 21.9209 18.5719 22.6463 17.3346C23.3716 16.0973 24.3209 15.1586 25.4943 14.5186C26.6889 13.8573 27.9583 13.5266 29.3023 13.5266C30.6463 13.5266 31.9049 13.8573 33.0783 14.5186C34.2516 15.1586 35.2009 16.0973 35.9263 17.3346C36.6516 18.5719 37.0143 20.0759 37.0143 21.8466C37.0143 23.5959 36.6516 25.0999 35.9263 26.3586C35.2009 27.5959 34.2516 28.5453 33.0783 29.2066C31.9049 29.8466 30.6463 30.1666 29.3023 30.1666ZM29.3023 26.3586C30.2623 26.3586 30.9876 25.9533 31.4783 25.1426C31.9689 24.3106 32.2143 23.2119 32.2143 21.8466C32.2143 20.4599 31.9689 19.3613 31.4783 18.5506C30.9876 17.7399 30.2623 17.3346 29.3023 17.3346C28.3209 17.3346 27.5849 17.7399 27.0943 18.5506C26.6249 19.3613 26.3903 20.4599 26.3903 21.8466C26.3903 23.2119 26.6249 24.3106 27.0943 25.1426C27.5849 25.9533 28.3209 26.3586 29.3023 26.3586ZM39.3083 36.0546C38.6469 36.0546 38.1029 36.0119 37.6762 35.9266C37.2282 35.8413 36.8442 35.7346 36.5242 35.6066L37.3562 32.1506C37.5696 32.2146 37.7829 32.2679 37.9962 32.3106C38.1883 32.3533 38.3909 32.3746 38.6043 32.3746C39.2229 32.3746 39.6496 32.1613 39.8843 31.7346C40.1403 31.3293 40.2682 30.6893 40.2682 29.8146V13.9106H44.9723V29.6866C44.9723 30.8386 44.8016 31.8946 44.4603 32.8546C44.1189 33.8146 43.5323 34.5826 42.7003 35.1586C41.8896 35.7559 40.7589 36.0546 39.3083 36.0546ZM42.6363 11.5746C41.8469 11.5746 41.2069 11.3506 40.7163 10.9026C40.2256 10.4546 39.9803 9.85727 39.9803 9.11061C39.9803 8.36394 40.2256 7.76661 40.7163 7.31861C41.2069 6.87061 41.8469 6.64661 42.6363 6.64661C43.4256 6.64661 44.0656 6.87061 44.5563 7.31861C45.0469 7.76661 45.2923 8.36394 45.2923 9.11061C45.2923 9.85727 45.0469 10.4546 44.5563 10.9026C44.0656 11.3506 43.4256 11.5746 42.6363 11.5746ZM55.9585 30.1666C54.6145 30.1666 53.3452 29.8466 52.1505 29.2066C50.9772 28.5453 50.0278 27.5959 49.3025 26.3586C48.5772 25.0999 48.2145 23.5959 48.2145 21.8466C48.2145 20.0759 48.5772 18.5719 49.3025 17.3346C50.0278 16.0973 50.9772 15.1586 52.1505 14.5186C53.3452 13.8573 54.6145 13.5266 55.9585 13.5266C57.3025 13.5266 58.5612 13.8573 59.7345 14.5186C60.9078 15.1586 61.8572 16.0973 62.5825 17.3346C63.3078 18.5719 63.6705 20.0759 63.6705 21.8466C63.6705 23.5959 63.3078 25.0999 62.5825 26.3586C61.8572 27.5959 60.9078 28.5453 59.7345 29.2066C58.5612 29.8466 57.3025 30.1666 55.9585 30.1666ZM55.9585 26.3586C56.9185 26.3586 57.6438 25.9533 58.1345 25.1426C58.6252 24.3106 58.8705 23.2119 58.8705 21.8466C58.8705 20.4599 58.6252 19.3613 58.1345 18.5506C57.6438 17.7399 56.9185 17.3346 55.9585 17.3346C54.9772 17.3346 54.2412 17.7399 53.7505 18.5506C53.2812 19.3613 53.0465 20.4599 53.0465 21.8466C53.0465 23.2119 53.2812 24.3106 53.7505 25.1426C54.2412 25.9533 54.9772 26.3586 55.9585 26.3586ZM71.6605 30.1666C69.9325 30.1666 68.6738 29.6013 67.8845 28.4706C67.1165 27.3186 66.7325 25.7506 66.7325 23.7666V13.9106H71.4365V23.1586C71.4365 24.2893 71.5965 25.0786 71.9165 25.5266C72.2365 25.9533 72.7378 26.1666 73.4205 26.1666C74.0178 26.1666 74.5192 26.0279 74.9245 25.7506C75.3298 25.4733 75.7672 25.0253 76.2365 24.4066V13.9106H80.9405V29.7826H77.1005L76.7485 27.5746H76.6525C75.9912 28.3639 75.2658 28.9933 74.4765 29.4626C73.6872 29.9319 72.7485 30.1666 71.6605 30.1666Z" fill="#444444"/>
<g id="." filter="url(#filter0_d_5_26)">
<path d="M42.5033 5.592C41.642 5.592 40.9167 5.88667 40.3273 6.476C39.7607 7.088 39.4773 7.836 39.4773 8.72C39.4773 9.62667 39.7607 10.3747 40.3273 10.964C40.9167 11.576 41.642 11.882 42.5033 11.882C43.3647 11.882 44.0787 11.576 44.6453 10.964C45.2347 10.3747 45.5293 9.62667 45.5293 8.72C45.5293 7.836 45.2347 7.088 44.6453 6.476C44.0787 5.88667 43.3647 5.592 42.5033 5.592Z" fill="#9C72FF"/>
</g>
</g>
<defs>
<filter id="filter0_d_5_26" x="34.4773" y="0.591995" width="16.052" height="16.29" filterUnits="userSpaceOnUse" color-interpolation-filters="sRGB">
<feFlood flood-opacity="0" result="BackgroundImageFix"/>
<feColorMatrix in="SourceAlpha" type="matrix" values="0 0 0 0 0 0 0 0 0 0 0 0 0 0 0 0 0 0 127 0" result="hardAlpha"/>
<feOffset/>
<feGaussianBlur stdDeviation="2.5"/>
<feComposite in2="hardAlpha" operator="out"/>
<feColorMatrix type="matrix" values="0 0 0 0 0.65098 0 0 0 0 0.501961 0 0 0 0 1 0 0 0 1 0"/>
<feBlend mode="normal" in2="BackgroundImageFix" result="effect1_dropShadow_5_26"/>
<feBlend mode="normal" in="SourceGraphic" in2="effect1_dropShadow_5_26" result="shape"/>
</filter>
</defs>
</svg>
